<?xml version="1.0" encoding="UTF-8" standalone="no"?>
<svg
   xmlns:dc="http://purl.org/dc/elements/1.1/"
   xmlns:cc="http://creativecommons.org/ns#"
   xmlns:rdf="http://www.w3.org/1999/02/22-rdf-syntax-ns#"
   xmlns:svg="http://www.w3.org/2000/svg"
   xmlns="http://www.w3.org/2000/svg"
   viewBox="0 0 816 347.11066"
   height="347.11066"
   width="816"
   xml:space="preserve"
   id="svg2"
   version="1.1"><metadata
     id="metadata8"><rdf:RDF><cc:Work
         rdf:about=""><dc:format>image/svg+xml</dc:format><dc:type
           rdf:resource="http://purl.org/dc/dcmitype/StillImage" /></cc:Work></rdf:RDF></metadata><defs
     id="defs6"><clipPath
       id="clipPath18"
       clipPathUnits="userSpaceOnUse"><path
         id="path16"
         d="M 0,260.333 H 612 V 0 H 0 Z" /></clipPath></defs><g
     transform="matrix(1.3333333,0,0,-1.3333333,0,347.11067)"
     id="g10"><g
       id="g12"><g
         clip-path="url(#clipPath18)"
         id="g14"><g
           transform="translate(64.7041,203.8296)"
           id="g20"><path
             id="path22"
             style="fill:#ffffff;fill-opacity:1;fill-rule:nonzero;stroke:none"
             d="m 0,0 h -15.985 v 10.686 c 0,3.098 -0.169,5.042 -0.514,5.817 -0.337,0.761 -1.096,1.146 -2.257,1.146 -1.317,0 -2.154,-0.464 -2.507,-1.403 -0.355,-0.938 -0.529,-2.961 -0.529,-6.073 V -18.38 c 0,-2.991 0.174,-4.934 0.529,-5.848 0.353,-0.916 1.154,-1.364 2.394,-1.364 1.19,0 1.968,0.448 2.333,1.364 0.366,0.914 0.551,3.055 0.551,6.433 v 7.723 H 0 v -2.392 C 0,-18.823 -0.447,-23.337 -1.346,-26 c -0.897,-2.662 -2.883,-4.997 -5.963,-6.998 -3.074,-2.001 -6.865,-3.006 -11.372,-3.006 -4.68,0 -8.54,0.846 -11.58,2.551 -3.036,1.686 -5.053,4.04 -6.036,7.04 -0.989,3 -1.484,7.511 -1.484,13.536 v 17.96 c 0,4.435 0.155,7.753 0.457,9.964 0.305,2.217 1.209,4.351 2.715,6.403 1.507,2.052 3.594,3.662 6.267,4.842 2.674,1.174 5.74,1.759 9.204,1.759 4.71,0 8.594,-0.903 11.66,-2.719 3.06,-1.83 5.078,-4.095 6.037,-6.811 C -0.482,15.804 0,11.576 0,5.834 Z" /></g><g
           transform="translate(104.3105,211.9858)"
           id="g24"><path
             id="path26"
             style="fill:#ffffff;fill-opacity:1;fill-rule:nonzero;stroke:none"
             d="m 0,0 h -14.848 v 4.559 c 0,2.128 -0.191,3.483 -0.568,4.065 -0.381,0.583 -1.01,0.869 -1.899,0.869 -0.96,0 -1.694,-0.395 -2.185,-1.178 -0.492,-0.782 -0.735,-1.978 -0.735,-3.565 0,-2.059 0.275,-3.602 0.827,-4.642 0.53,-1.03 2.037,-2.284 4.52,-3.76 7.117,-4.224 11.596,-7.688 13.444,-10.396 1.85,-2.703 2.777,-7.075 2.777,-13.099 0,-4.381 -0.519,-7.606 -1.538,-9.678 -1.027,-2.08 -3.008,-3.817 -5.949,-5.226 -2.931,-1.403 -6.351,-2.109 -10.251,-2.109 -4.279,0 -7.926,0.814 -10.957,2.436 -3.022,1.617 -4.999,3.681 -5.938,6.184 -0.938,2.507 -1.406,6.064 -1.406,10.67 v 4.021 h 14.845 v -7.476 c 0,-2.3 0.21,-3.779 0.63,-4.441 0.417,-0.655 1.154,-0.983 2.218,-0.983 1.066,0 1.853,0.417 2.377,1.25 0.518,0.834 0.773,2.075 0.773,3.716 0,3.627 -0.49,5.991 -1.475,7.101 -1.013,1.119 -3.51,2.977 -7.485,5.586 -3.97,2.634 -6.609,4.542 -7.899,5.738 -1.29,1.19 -2.355,2.832 -3.208,4.931 -0.847,2.103 -1.271,4.788 -1.271,8.055 0,4.708 0.603,8.147 1.803,10.326 1.204,2.179 3.15,3.88 5.832,5.102 2.68,1.228 5.923,1.839 9.723,1.839 4.15,0 7.686,-0.668 10.609,-2.007 2.927,-1.34 4.859,-3.032 5.812,-5.071 C -0.477,10.781 0,7.32 0,2.437 Z" /></g><g
           transform="translate(148.6602,230.6021)"
           id="g28"><path
             id="path30"
             style="fill:#ffffff;fill-opacity:1;fill-rule:nonzero;stroke:none"
             d="M 0,0 -8.131,-61.479 H -32.416 L -41.653,0 h 16.856 c 1.963,-16.943 3.361,-31.268 4.203,-42.99 0.825,11.844 1.7,22.37 2.622,31.551 L -16.856,0 Z" /></g><g
           transform="translate(161.9082,247.7832)"
           id="g32"><path
             id="path34"
             style="fill:#00a650;fill-opacity:1;fill-rule:nonzero;stroke:none"
             d="m 0,0 v -33.23 c 0,-41.568 -4.923,-75.663 -14.769,-102.286 -9.842,-26.623 -26.894,-49.222 -51.141,-67.825 -24.25,-18.597 -51.687,-30.99 -82.319,-37.193 v 63.45 c 21.879,12.394 34.279,28.993 37.196,49.772 h -37.196 V 0 Z" /></g><g
           transform="translate(64.7041,192.9053)"
           id="g36"><path
             id="path38"
             style="fill:#ffffff;fill-opacity:1;fill-rule:nonzero;stroke:none"
             d="m 0,0 h -15.985 v 10.689 c 0,3.098 -0.169,5.039 -0.514,5.815 -0.337,0.764 -1.096,1.148 -2.257,1.148 -1.317,0 -2.154,-0.461 -2.507,-1.402 -0.355,-0.939 -0.529,-2.965 -0.529,-6.073 v -28.554 c 0,-2.987 0.174,-4.934 0.529,-5.844 0.353,-0.923 1.154,-1.368 2.394,-1.368 1.19,0 1.968,0.445 2.333,1.368 0.366,0.91 0.551,3.054 0.551,6.426 v 7.73 H 0 v -2.392 c 0,-6.362 -0.447,-10.876 -1.346,-13.539 -0.897,-2.666 -2.883,-4.997 -5.963,-6.998 -3.074,-2.005 -6.865,-3.006 -11.372,-3.006 -4.68,0 -8.54,0.846 -11.58,2.548 -3.036,1.689 -5.053,4.046 -6.036,7.043 -0.989,2.996 -1.484,7.513 -1.484,13.538 V 5.084 c 0,4.437 0.155,7.755 0.457,9.969 0.305,2.215 1.209,4.352 2.715,6.401 1.507,2.052 3.594,3.661 6.267,4.841 2.674,1.178 5.74,1.763 9.204,1.763 4.71,0 8.594,-0.907 11.66,-2.723 3.06,-1.829 5.078,-4.094 6.037,-6.814 C -0.482,15.811 0,11.58 0,5.841 Z" /></g><g
           transform="translate(104.3105,201.0684)"
           id="g40"><path
             id="path42"
             style="fill:#ffffff;fill-opacity:1;fill-rule:nonzero;stroke:none"
             d="m 0,0 h -14.848 v 4.556 c 0,2.128 -0.191,3.48 -0.568,4.065 -0.381,0.582 -1.01,0.868 -1.899,0.868 -0.96,0 -1.694,-0.391 -2.185,-1.174 -0.492,-0.782 -0.735,-1.978 -0.735,-3.569 0,-2.055 0.275,-3.601 0.827,-4.641 0.53,-1.034 2.037,-2.287 4.52,-3.76 7.117,-4.221 11.596,-7.689 13.444,-10.396 1.85,-2.707 2.777,-7.078 2.777,-13.103 0,-4.377 -0.519,-7.603 -1.538,-9.674 -1.027,-2.08 -3.008,-3.82 -5.949,-5.227 -2.931,-1.403 -6.351,-2.109 -10.251,-2.109 -4.279,0 -7.926,0.811 -10.957,2.434 -3.022,1.616 -4.999,3.684 -5.938,6.19 -0.938,2.507 -1.406,6.058 -1.406,10.667 v 4.024 h 14.845 v -7.479 c 0,-2.3 0.21,-3.779 0.63,-4.444 0.417,-0.655 1.154,-0.98 2.218,-0.98 1.066,0 1.853,0.42 2.377,1.253 0.518,0.834 0.773,2.068 0.773,3.716 0,3.623 -0.49,5.987 -1.475,7.1 -1.013,1.117 -3.51,2.975 -7.485,5.58 -3.97,2.634 -6.609,4.543 -7.899,5.739 -1.29,1.19 -2.355,2.838 -3.208,4.937 -0.847,2.099 -1.271,4.784 -1.271,8.052 0,4.704 0.603,8.146 1.803,10.325 1.204,2.179 3.15,3.881 5.832,5.106 2.68,1.221 5.923,1.839 9.723,1.839 4.15,0 7.686,-0.671 10.609,-2.011 2.927,-1.339 4.859,-3.034 5.812,-5.071 C -0.477,10.778 0,7.316 0,2.434 Z" /></g><g
           transform="translate(148.6602,219.6777)"
           id="g44"><path
             id="path46"
             style="fill:#ffffff;fill-opacity:1;fill-rule:nonzero;stroke:none"
             d="M 0,0 -8.131,-61.479 H -32.416 L -41.653,0 h 16.856 c 1.963,-16.936 3.361,-31.264 4.203,-42.983 0.825,11.84 1.7,22.363 2.622,31.55 L -16.856,0 Z" /></g><g
           transform="translate(203.7622,247.7896)"
           id="g48"><path
             id="path50"
             style="fill:#58595b;fill-opacity:1;fill-rule:nonzero;stroke:none"
             d="m 0,0 v -28.379 c 2.699,2.498 5.621,4.378 8.769,5.618 3.14,1.26 6.503,1.877 10.085,1.877 5.509,0 10.198,-1.4 14.063,-4.205 3.871,-2.806 6.231,-6.041 7.092,-9.703 0.857,-3.658 1.285,-10.345 1.285,-20.06 v -71.293 H 9.815 v 72.772 c 0,6.022 -0.295,9.896 -0.894,11.614 -0.597,1.705 -1.932,2.571 -4.011,2.571 -1.923,0 -3.222,-0.885 -3.895,-2.653 C 0.339,-43.604 0,-47.116 0,-52.355 v -73.79 H -31.476 V 0 Z" /></g><g
           transform="translate(295.6255,188.3408)"
           id="g52"><path
             id="path54"
             style="fill:#58595b;fill-opacity:1;fill-rule:nonzero;stroke:none"
             d="m 0,0 v 7.555 c 0,5.357 -0.283,8.808 -0.857,10.371 -0.57,1.552 -1.741,2.335 -3.511,2.335 -2.174,0 -3.531,-0.662 -4.048,-1.998 C -8.935,16.939 -9.195,13.37 -9.195,7.555 V 0 Z m 31.555,-16.832 h -40.75 v -22.356 c 0,-4.68 0.337,-7.699 1.011,-9.044 0.676,-1.346 1.973,-2.02 3.899,-2.02 2.389,0 3.983,0.897 4.789,2.691 0.807,1.788 1.21,5.255 1.21,10.393 v 13.637 h 29.841 v -7.635 c 0,-6.387 -0.397,-11.299 -1.207,-14.722 -0.811,-3.436 -2.688,-7.094 -5.653,-10.987 -2.955,-3.897 -6.707,-6.824 -11.258,-8.774 -4.546,-1.937 -10.247,-2.92 -17.104,-2.92 -6.646,0 -12.514,0.961 -17.604,2.885 -5.091,1.921 -9.055,4.565 -11.881,7.912 -2.833,3.346 -4.796,7.043 -5.889,11.064 -1.089,4.026 -1.633,9.874 -1.633,17.565 V 1.015 c 0,9.034 1.223,16.16 3.663,21.389 2.442,5.218 6.437,9.213 12.001,11.996 5.559,2.778 11.945,4.164 19.164,4.164 8.831,0 16.115,-1.672 21.856,-5.019 5.74,-3.353 9.763,-7.794 12.08,-13.323 2.312,-5.541 3.465,-13.316 3.465,-23.34 z" /></g><path
           id="path56"
           style="fill:#58595b;fill-opacity:1;fill-rule:nonzero;stroke:none"
           d="M 369.878,121.645 H 337.467 V 247.79 h 32.411 z" /><g
           transform="translate(422.1592,194.9668)"
           id="g58"><path
             id="path60"
             style="fill:#58595b;fill-opacity:1;fill-rule:nonzero;stroke:none"
             d="m 0,0 c 0,6.381 -0.233,10.256 -0.701,11.605 -0.466,1.352 -1.766,2.03 -3.899,2.03 -2.074,0 -3.413,-0.783 -4.011,-2.335 C -9.212,9.737 -9.505,5.971 -9.505,0 v -42.862 c 0,-6.229 0.311,-10.123 0.934,-11.685 0.622,-1.555 1.972,-2.331 4.05,-2.331 2.026,0 3.286,0.709 3.779,2.141 0.494,1.422 0.742,4.892 0.742,10.402 z m -8.964,30.075 -0.541,-9.143 c 2.801,3.696 5.893,6.458 9.272,8.284 3.378,1.819 7.063,2.722 11.06,2.722 4.882,0 9.108,-1.31 12.658,-3.931 3.563,-2.628 5.785,-5.65 6.664,-9.076 0.886,-3.432 1.327,-9.247 1.327,-17.455 v -43.553 c 0,-9.4 -0.558,-16.093 -1.676,-20.057 -1.113,-3.982 -3.4,-7.151 -6.855,-9.514 -3.453,-2.364 -7.625,-3.547 -12.506,-3.547 -3.895,0 -7.509,0.919 -10.827,2.736 -3.324,1.813 -6.365,4.523 -9.117,8.118 V -88.047 H -40.983 V 30.075 Z" /></g><g
           transform="translate(503.7344,188.3408)"
           id="g62"><path
             id="path64"
             style="fill:#58595b;fill-opacity:1;fill-rule:nonzero;stroke:none"
             d="m 0,0 v 7.555 c 0,5.357 -0.283,8.808 -0.857,10.371 -0.575,1.552 -1.737,2.335 -3.504,2.335 -2.182,0 -3.531,-0.662 -4.051,-1.998 C -8.936,16.939 -9.194,13.37 -9.194,7.555 V 0 Z m 31.556,-16.832 h -40.75 v -22.356 c 0,-4.68 0.337,-7.699 1.012,-9.044 0.678,-1.346 1.973,-2.02 3.896,-2.02 2.393,0 3.992,0.897 4.796,2.691 0.804,1.788 1.207,5.255 1.207,10.393 v 13.637 h 29.839 v -7.635 c 0,-6.387 -0.408,-11.299 -1.207,-14.722 -0.805,-3.436 -2.692,-7.094 -5.654,-10.987 -2.96,-3.897 -6.712,-6.824 -11.252,-8.774 -4.551,-1.937 -10.252,-2.92 -17.101,-2.92 -6.649,0 -12.52,0.961 -17.613,2.885 -5.09,1.921 -9.054,4.565 -11.884,7.912 -2.826,3.346 -4.789,7.043 -5.879,11.064 -1.089,4.026 -1.638,9.874 -1.638,17.565 V 1.015 c 0,9.034 1.215,16.16 3.664,21.389 2.443,5.218 6.441,9.213 11.998,11.996 5.558,2.778 11.948,4.164 19.168,4.164 8.829,0 16.114,-1.672 21.853,-5.019 5.745,-3.353 9.769,-7.794 12.076,-13.323 2.313,-5.541 3.469,-13.316 3.469,-23.34 z" /></g><g
           transform="translate(577.0547,225.0415)"
           id="g66"><path
             id="path68"
             style="fill:#58595b;fill-opacity:1;fill-rule:nonzero;stroke:none"
             d="M 0,0 -1.247,-13.603 C 3.324,-3.862 9.944,1.294 18.623,1.864 v -36.386 c -5.771,0 -10.002,-0.776 -12.703,-2.335 C 3.218,-38.416 1.555,-40.579 0.933,-43.365 0.309,-46.139 0,-52.543 0,-62.567 v -40.829 H -31.483 V 0 Z" /></g></g></g></g></svg>